# xmcd
#
# Track frame offsets:
#	150
#	64385
#	109457
#	167672
#	207312
#
# Disc length: 3973 seconds
#
# Revision: 1
# Processed by: cddbd v1.5.1PL0 Copyright (c) Steve Scherf et al.
# Submitted via: CDex 1.50Beta5
#
DISCID=490f8305
DTITLE=ORCHESTRA MOONSHADOW - リラクセーション*ベスト・オブ・α波 トランキリティー
DYEAR=1996
DGENRE=
TTITLE0=ORCHESTRA MOONSHADOW/VALLEY
TTITLE1=YUHKI/CRESCENT MOON
TTITLE2=ORCHESTRA MOONSHADOW/TWILIGHT
TTITLE3=YUHKI/AIR CANDLE
TTITLE4=ORCHESTRA MOONSHADOW/VISION
EXTD=
EXTT0=
EXTT1=
EXTT2=
EXTT3=
EXTT4=
PLAYORDER=
